ISO-10303-21;
HEADER;
/* Generated by software containing ST-Developer
 * from STEP Tools, Inc. (www.steptools.com) 
 */
/* OPTION: using custom renumber hook */

FILE_DESCRIPTION(
/* description */ ('STEP AP242 Edition 2',
'CAx-IF Rec.Pracs.---Representation and Presentation of Product Manufa
cturing Information (PMI)---4.0---2014-10-13',
'CAx-IF Rec.Pracs.---3D Tessellated Geometry---0.4---2014-09-14','2;1',
'CAx-IF Rec.Pracs.---User Defined Attributes---1.5---2016-08-15'),
/* implementation_level */ '2;1');

FILE_NAME(
/* name */ 'Case - SmallStand2',
/* time_stamp */ '2026-08-02T16:10:44Z',
/* author */ (''),
/* organization */ (''),
/* preprocessor_version */ 'ST-DEVELOPER v20',
/* originating_system */ 'ONSHAPE BY PTC INC, 1.218',
/* authorisation */ '  ');

FILE_SCHEMA (('AP242_MANAGED_MODEL_BASED_3D_ENGINEERING_MIM_LF { 1 0 10303 442 3 1 4 }'));
ENDSEC;

DATA;
#10=SHAPE_REPRESENTATION_RELATIONSHIP('','',#133,#11);
#11=ADVANCED_BREP_SHAPE_REPRESENTATION('',(#131),#213);
#12=CYLINDRICAL_SURFACE('',#144,0.0005);
#13=CYLINDRICAL_SURFACE('',#145,0.0021);
#14=LINE('',#187,#24);
#15=LINE('',#189,#25);
#16=LINE('',#191,#26);
#17=LINE('',#195,#27);
#18=LINE('',#200,#28);
#19=LINE('',#202,#29);
#20=LINE('',#204,#30);
#21=LINE('',#205,#31);
#22=LINE('',#207,#32);
#23=LINE('',#208,#33);
#24=VECTOR('',#154,1.);
#25=VECTOR('',#155,1.);
#26=VECTOR('',#156,1.);
#27=VECTOR('',#161,1.);
#28=VECTOR('',#164,1.);
#29=VECTOR('',#165,1.);
#30=VECTOR('',#168,1.);
#31=VECTOR('',#169,1.);
#32=VECTOR('',#172,1.);
#33=VECTOR('',#173,1.);
#34=ORIENTED_EDGE('',*,*,#62,.T.);
#35=ORIENTED_EDGE('',*,*,#63,.F.);
#36=ORIENTED_EDGE('',*,*,#64,.F.);
#37=ORIENTED_EDGE('',*,*,#65,.T.);
#38=ORIENTED_EDGE('',*,*,#66,.T.);
#39=ORIENTED_EDGE('',*,*,#67,.F.);
#40=ORIENTED_EDGE('',*,*,#68,.T.);
#41=ORIENTED_EDGE('',*,*,#69,.T.);
#42=ORIENTED_EDGE('',*,*,#70,.F.);
#43=ORIENTED_EDGE('',*,*,#71,.F.);
#44=ORIENTED_EDGE('',*,*,#64,.T.);
#45=ORIENTED_EDGE('',*,*,#72,.T.);
#46=ORIENTED_EDGE('',*,*,#68,.F.);
#47=ORIENTED_EDGE('',*,*,#73,.F.);
#48=ORIENTED_EDGE('',*,*,#74,.F.);
#49=ORIENTED_EDGE('',*,*,#66,.F.);
#50=ORIENTED_EDGE('',*,*,#75,.T.);
#51=ORIENTED_EDGE('',*,*,#70,.T.);
#52=ORIENTED_EDGE('',*,*,#75,.F.);
#53=ORIENTED_EDGE('',*,*,#65,.F.);
#54=ORIENTED_EDGE('',*,*,#73,.T.);
#55=ORIENTED_EDGE('',*,*,#71,.T.);
#56=ORIENTED_EDGE('',*,*,#67,.T.);
#57=ORIENTED_EDGE('',*,*,#62,.F.);
#58=ORIENTED_EDGE('',*,*,#63,.T.);
#59=ORIENTED_EDGE('',*,*,#74,.T.);
#60=ORIENTED_EDGE('',*,*,#69,.F.);
#61=ORIENTED_EDGE('',*,*,#72,.F.);
#62=EDGE_CURVE('',#76,#76,#86,.T.);
#63=EDGE_CURVE('',#77,#78,#87,.T.);
#64=EDGE_CURVE('',#79,#77,#14,.T.);
#65=EDGE_CURVE('',#79,#80,#15,.T.);
#66=EDGE_CURVE('',#80,#78,#16,.T.);
#67=EDGE_CURVE('',#81,#81,#88,.T.);
#68=EDGE_CURVE('',#82,#83,#17,.T.);
#69=EDGE_CURVE('',#83,#84,#89,.T.);
#70=EDGE_CURVE('',#85,#84,#18,.T.);
#71=EDGE_CURVE('',#82,#85,#19,.T.);
#72=EDGE_CURVE('',#77,#83,#20,.T.);
#73=EDGE_CURVE('',#79,#82,#21,.T.);
#74=EDGE_CURVE('',#78,#84,#22,.T.);
#75=EDGE_CURVE('',#80,#85,#23,.T.);
#76=VERTEX_POINT('',#183);
#77=VERTEX_POINT('',#185);
#78=VERTEX_POINT('',#186);
#79=VERTEX_POINT('',#188);
#80=VERTEX_POINT('',#190);
#81=VERTEX_POINT('',#194);
#82=VERTEX_POINT('',#196);
#83=VERTEX_POINT('',#197);
#84=VERTEX_POINT('',#199);
#85=VERTEX_POINT('',#201);
#86=CIRCLE('',#136,0.0005);
#87=CIRCLE('',#137,0.0021);
#88=CIRCLE('',#139,0.0005);
#89=CIRCLE('',#140,0.0021);
#90=EDGE_LOOP('',(#34));
#91=EDGE_LOOP('',(#35,#36,#37,#38));
#92=EDGE_LOOP('',(#39));
#93=EDGE_LOOP('',(#40,#41,#42,#43));
#94=EDGE_LOOP('',(#44,#45,#46,#47));
#95=EDGE_LOOP('',(#48,#49,#50,#51));
#96=EDGE_LOOP('',(#52,#53,#54,#55));
#97=EDGE_LOOP('',(#56));
#98=EDGE_LOOP('',(#57));
#99=EDGE_LOOP('',(#58,#59,#60,#61));
#100=FACE_BOUND('',#90,.T.);
#101=FACE_BOUND('',#91,.T.);
#102=FACE_BOUND('',#92,.T.);
#103=FACE_BOUND('',#93,.T.);
#104=FACE_BOUND('',#94,.T.);
#105=FACE_BOUND('',#95,.T.);
#106=FACE_BOUND('',#96,.T.);
#107=FACE_BOUND('',#97,.T.);
#108=FACE_BOUND('',#98,.T.);
#109=FACE_BOUND('',#99,.T.);
#110=PLANE('',#135);
#111=PLANE('',#138);
#112=PLANE('',#141);
#113=PLANE('',#142);
#114=PLANE('',#143);
#115=ADVANCED_FACE('',(#100,#101),#110,.F.);
#116=ADVANCED_FACE('',(#102,#103),#111,.T.);
#117=ADVANCED_FACE('',(#104),#112,.T.);
#118=ADVANCED_FACE('',(#105),#113,.F.);
#119=ADVANCED_FACE('',(#106),#114,.T.);
#120=ADVANCED_FACE('',(#107,#108),#12,.F.);
#121=ADVANCED_FACE('',(#109),#13,.T.);
#122=CLOSED_SHELL('',(#115,#116,#117,#118,#119,#120,#121));
#123=STYLED_ITEM('',(#124),#131);
#124=PRESENTATION_STYLE_ASSIGNMENT((#125));
#125=SURFACE_STYLE_USAGE(.BOTH.,#126);
#126=SURFACE_SIDE_STYLE('',(#127));
#127=SURFACE_STYLE_FILL_AREA(#128);
#128=FILL_AREA_STYLE('',(#129));
#129=FILL_AREA_STYLE_COLOUR('',#130);
#130=COLOUR_RGB('',0.231372549019608,0.380392156862745,0.705882352941177);
#131=MANIFOLD_SOLID_BREP('SmallStand2',#122);
#132=SHAPE_DEFINITION_REPRESENTATION(#218,#133);
#133=SHAPE_REPRESENTATION('SmallStand2',(#134),#213);
#134=AXIS2_PLACEMENT_3D('',#180,#146,#147);
#135=AXIS2_PLACEMENT_3D('',#181,#148,#149);
#136=AXIS2_PLACEMENT_3D('',#182,#150,#151);
#137=AXIS2_PLACEMENT_3D('',#184,#152,#153);
#138=AXIS2_PLACEMENT_3D('',#192,#157,#158);
#139=AXIS2_PLACEMENT_3D('',#193,#159,#160);
#140=AXIS2_PLACEMENT_3D('',#198,#162,#163);
#141=AXIS2_PLACEMENT_3D('',#203,#166,#167);
#142=AXIS2_PLACEMENT_3D('',#206,#170,#171);
#143=AXIS2_PLACEMENT_3D('',#209,#174,#175);
#144=AXIS2_PLACEMENT_3D('',#210,#176,#177);
#145=AXIS2_PLACEMENT_3D('',#211,#178,#179);
#146=DIRECTION('',(0.,0.,1.));
#147=DIRECTION('',(1.,0.,0.));
#148=DIRECTION('',(-1.,0.,0.));
#149=DIRECTION('',(0.,0.,1.));
#150=DIRECTION('',(-1.,0.,0.));
#151=DIRECTION('',(0.,0.,1.));
#152=DIRECTION('',(-1.,0.,0.));
#153=DIRECTION('',(0.,0.,1.));
#154=DIRECTION('',(0.,-1.,0.));
#155=DIRECTION('',(0.,-0.819152044288992,0.573576436351046));
#156=DIRECTION('',(0.,-1.,0.));
#157=DIRECTION('',(-1.,-6.93889390390723E-16,0.));
#158=DIRECTION('',(6.93889390390723E-16,-1.,0.));
#159=DIRECTION('',(-1.,-6.93889390390723E-16,0.));
#160=DIRECTION('',(6.93889390390723E-16,-1.,0.));
#161=DIRECTION('',(6.93889390390723E-16,-1.,0.));
#162=DIRECTION('',(-1.,-6.93889390390723E-16,0.));
#163=DIRECTION('',(6.93889390390723E-16,-1.,0.));
#164=DIRECTION('',(6.93889390390723E-16,-1.,0.));
#165=DIRECTION('',(5.68400912649003E-16,-0.819152044288992,0.573576436351046));
#166=DIRECTION('',(0.,0.,-1.));
#167=DIRECTION('',(-1.,0.,0.));
#168=DIRECTION('',(-1.,0.,0.));
#169=DIRECTION('',(-1.,-4.47670574445628E-16,0.));
#170=DIRECTION('',(0.,0.,-1.));
#171=DIRECTION('',(-1.,0.,0.));
#172=DIRECTION('',(-1.,0.,0.));
#173=DIRECTION('',(-1.,-4.47670574445628E-16,0.));
#174=DIRECTION('',(-2.56773292749749E-16,0.573576436351046,0.819152044288992));
#175=DIRECTION('',(3.66710266225163E-16,-0.819152044288992,0.573576436351046));
#176=DIRECTION('',(-1.,0.,0.));
#177=DIRECTION('',(0.,0.,1.));
#178=DIRECTION('',(-1.,0.,0.));
#179=DIRECTION('',(0.,0.,1.));
#180=CARTESIAN_POINT('',(0.,0.,0.));
#181=CARTESIAN_POINT('',(0.1121625,-0.0699625,-0.0008));
#182=CARTESIAN_POINT('',(0.1121625,-0.0734057786718959,0.001));
#183=CARTESIAN_POINT('',(0.1121625,-0.0734057786718959,0.0015));
#184=CARTESIAN_POINT('',(0.1121625,-0.0734057786718959,0.001));
#185=CARTESIAN_POINT('',(0.1121625,-0.0744874440545351,-0.0008));
#186=CARTESIAN_POINT('',(0.1121625,-0.0753856776592182,0.0017));
#187=CARTESIAN_POINT('',(0.1121625,-0.0699625,-0.0008));
#188=CARTESIAN_POINT('',(0.1121625,-0.0563921299831448,-0.0008));
#189=CARTESIAN_POINT('',(0.1121625,-0.0599625,0.0017));
#190=CARTESIAN_POINT('',(0.1121625,-0.0599625,0.0017));
#191=CARTESIAN_POINT('',(0.1121625,-0.0699625,0.0017));
#192=CARTESIAN_POINT('',(0.0811625,-0.0699625,-0.0008));
#193=CARTESIAN_POINT('',(0.0811625,-0.0734057786718959,0.001));
#194=CARTESIAN_POINT('',(0.0811625,-0.0739057786718959,0.001));
#195=CARTESIAN_POINT('',(0.0811625,-0.0699625,-0.0008));
#196=CARTESIAN_POINT('',(0.0811625,-0.0563921299831448,-0.0008));
#197=CARTESIAN_POINT('',(0.0811625,-0.0744874440545351,-0.0008));
#198=CARTESIAN_POINT('',(0.0811625,-0.0734057786718959,0.001));
#199=CARTESIAN_POINT('',(0.0811625,-0.0753856776592182,0.0017));
#200=CARTESIAN_POINT('',(0.0811625,-0.0699625,0.0017));
#201=CARTESIAN_POINT('',(0.0811625,-0.0599625,0.0017));
#202=CARTESIAN_POINT('',(0.0811625,-0.0599625,0.0017));
#203=CARTESIAN_POINT('',(0.0275,-0.0609625,-0.0008));
#204=CARTESIAN_POINT('',(0.436605965065445,-0.0744874440545351,-0.0008));
#205=CARTESIAN_POINT('',(0.0275,-0.0563921299831448,-0.0008));
#206=CARTESIAN_POINT('',(0.0275,-0.0609625,0.0017));
#207=CARTESIAN_POINT('',(0.436605965065445,-0.0753856776592182,0.0017));
#208=CARTESIAN_POINT('',(0.0275,-0.0599625,0.0017));
#209=CARTESIAN_POINT('',(0.0275,-0.0599625,0.0017));
#210=CARTESIAN_POINT('',(0.1371625,-0.0734057786718959,0.001));
#211=CARTESIAN_POINT('',(0.436605965065445,-0.0734057786718959,0.001));
#212=MECHANICAL_DESIGN_GEOMETRIC_PRESENTATION_REPRESENTATION('',(#123),
#213);
#213=(
GEOMETRIC_REPRESENTATION_CONTEXT(3)
GLOBAL_UNCERTAINTY_ASSIGNED_CONTEXT((#214))
GLOBAL_UNIT_ASSIGNED_CONTEXT((#217,#216,#215))
REPRESENTATION_CONTEXT('SmallStand2','TOP_LEVEL_ASSEMBLY_PART')
);
#214=UNCERTAINTY_MEASURE_WITH_UNIT(LENGTH_MEASURE(1.E-8),#217,
'DISTANCE_ACCURACY_VALUE','Maximum Tolerance applied to model');
#215=(
NAMED_UNIT(*)
SI_UNIT($,.STERADIAN.)
SOLID_ANGLE_UNIT()
);
#216=(
NAMED_UNIT(*)
PLANE_ANGLE_UNIT()
SI_UNIT($,.RADIAN.)
);
#217=(
LENGTH_UNIT()
NAMED_UNIT(*)
SI_UNIT($,.METRE.)
);
#218=PRODUCT_DEFINITION_SHAPE('','',#219);
#219=PRODUCT_DEFINITION('','',#221,#220);
#220=PRODUCT_DEFINITION_CONTEXT('',#227,'design');
#221=PRODUCT_DEFINITION_FORMATION_WITH_SPECIFIED_SOURCE('','',#223,
 .NOT_KNOWN.);
#222=PRODUCT_RELATED_PRODUCT_CATEGORY('','',(#223));
#223=PRODUCT('SmallStand2','SmallStand2','SmallStand2',(#225));
#224=PRODUCT_CATEGORY('','');
#225=PRODUCT_CONTEXT('',#227,'mechanical');
#226=APPLICATION_PROTOCOL_DEFINITION('international standard',
'ap242_managed_model_based_3d_engineering',2020,#227);
#227=APPLICATION_CONTEXT('managed model based 3d engineering');
ENDSEC;
END-ISO-10303-21;
