ISO-10303-21;
HEADER;
/* Generated by software containing ST-Developer
 * from STEP Tools, Inc. (www.steptools.com) 
 */
/* OPTION: using custom renumber hook */

FILE_DESCRIPTION(
/* description */ ('STEP AP242 Edition 2',
'CAx-IF Rec.Pracs.---Representation and Presentation of Product Manufa
cturing Information (PMI)---4.0---2014-10-13',
'CAx-IF Rec.Pracs.---3D Tessellated Geometry---0.4---2014-09-14','2;1',
'CAx-IF Rec.Pracs.---User Defined Attributes---1.5---2016-08-15'),
/* implementation_level */ '2;1');

FILE_NAME(
/* name */ 'Case - BigStand2',
/* time_stamp */ '2026-08-02T16:10:43Z',
/* author */ (''),
/* organization */ (''),
/* preprocessor_version */ 'ST-DEVELOPER v20',
/* originating_system */ 'ONSHAPE BY PTC INC, 1.218',
/* authorisation */ '  ');

FILE_SCHEMA (('AP242_MANAGED_MODEL_BASED_3D_ENGINEERING_MIM_LF { 1 0 10303 442 3 1 4 }'));
ENDSEC;

DATA;
#10=SHAPE_REPRESENTATION_RELATIONSHIP('','',#235,#11);
#11=ADVANCED_BREP_SHAPE_REPRESENTATION('',(#233),#381);
#12=CYLINDRICAL_SURFACE('',#254,0.0005);
#13=CYLINDRICAL_SURFACE('',#255,0.0005);
#14=CYLINDRICAL_SURFACE('',#256,0.0021);
#15=LINE('',#326,#35);
#16=LINE('',#328,#36);
#17=LINE('',#330,#37);
#18=LINE('',#337,#38);
#19=LINE('',#339,#39);
#20=LINE('',#341,#40);
#21=LINE('',#348,#41);
#22=LINE('',#350,#42);
#23=LINE('',#352,#43);
#24=LINE('',#359,#44);
#25=LINE('',#361,#45);
#26=LINE('',#363,#46);
#27=LINE('',#365,#47);
#28=LINE('',#366,#48);
#29=LINE('',#367,#49);
#30=LINE('',#368,#50);
#31=LINE('',#370,#51);
#32=LINE('',#371,#52);
#33=LINE('',#373,#53);
#34=LINE('',#374,#54);
#35=VECTOR('',#265,1.);
#36=VECTOR('',#266,1.);
#37=VECTOR('',#267,1.);
#38=VECTOR('',#274,1.);
#39=VECTOR('',#275,1.);
#40=VECTOR('',#276,1.);
#41=VECTOR('',#283,1.);
#42=VECTOR('',#284,1.);
#43=VECTOR('',#285,1.);
#44=VECTOR('',#292,1.);
#45=VECTOR('',#293,1.);
#46=VECTOR('',#294,1.);
#47=VECTOR('',#297,1.);
#48=VECTOR('',#298,1.);
#49=VECTOR('',#299,1.);
#50=VECTOR('',#300,1.);
#51=VECTOR('',#303,1.);
#52=VECTOR('',#304,1.);
#53=VECTOR('',#307,1.);
#54=VECTOR('',#308,1.);
#55=ORIENTED_EDGE('',*,*,#111,.T.);
#56=ORIENTED_EDGE('',*,*,#112,.F.);
#57=ORIENTED_EDGE('',*,*,#113,.T.);
#58=ORIENTED_EDGE('',*,*,#114,.F.);
#59=ORIENTED_EDGE('',*,*,#115,.F.);
#60=ORIENTED_EDGE('',*,*,#116,.T.);
#61=ORIENTED_EDGE('',*,*,#117,.F.);
#62=ORIENTED_EDGE('',*,*,#118,.F.);
#63=ORIENTED_EDGE('',*,*,#119,.T.);
#64=ORIENTED_EDGE('',*,*,#120,.T.);
#65=ORIENTED_EDGE('',*,*,#121,.T.);
#66=ORIENTED_EDGE('',*,*,#122,.F.);
#67=ORIENTED_EDGE('',*,*,#123,.T.);
#68=ORIENTED_EDGE('',*,*,#124,.F.);
#69=ORIENTED_EDGE('',*,*,#125,.F.);
#70=ORIENTED_EDGE('',*,*,#126,.T.);
#71=ORIENTED_EDGE('',*,*,#127,.F.);
#72=ORIENTED_EDGE('',*,*,#128,.F.);
#73=ORIENTED_EDGE('',*,*,#129,.T.);
#74=ORIENTED_EDGE('',*,*,#130,.T.);
#75=ORIENTED_EDGE('',*,*,#128,.T.);
#76=ORIENTED_EDGE('',*,*,#131,.T.);
#77=ORIENTED_EDGE('',*,*,#115,.T.);
#78=ORIENTED_EDGE('',*,*,#132,.T.);
#79=ORIENTED_EDGE('',*,*,#118,.T.);
#80=ORIENTED_EDGE('',*,*,#133,.T.);
#81=ORIENTED_EDGE('',*,*,#125,.T.);
#82=ORIENTED_EDGE('',*,*,#134,.T.);
#83=ORIENTED_EDGE('',*,*,#135,.F.);
#84=ORIENTED_EDGE('',*,*,#130,.F.);
#85=ORIENTED_EDGE('',*,*,#136,.F.);
#86=ORIENTED_EDGE('',*,*,#123,.F.);
#87=ORIENTED_EDGE('',*,*,#113,.F.);
#88=ORIENTED_EDGE('',*,*,#137,.T.);
#89=ORIENTED_EDGE('',*,*,#120,.F.);
#90=ORIENTED_EDGE('',*,*,#138,.F.);
#91=ORIENTED_EDGE('',*,*,#114,.T.);
#92=ORIENTED_EDGE('',*,*,#138,.T.);
#93=ORIENTED_EDGE('',*,*,#119,.F.);
#94=ORIENTED_EDGE('',*,*,#132,.F.);
#95=ORIENTED_EDGE('',*,*,#136,.T.);
#96=ORIENTED_EDGE('',*,*,#129,.F.);
#97=ORIENTED_EDGE('',*,*,#134,.F.);
#98=ORIENTED_EDGE('',*,*,#124,.T.);
#99=ORIENTED_EDGE('',*,*,#126,.F.);
#100=ORIENTED_EDGE('',*,*,#111,.F.);
#101=ORIENTED_EDGE('',*,*,#121,.F.);
#102=ORIENTED_EDGE('',*,*,#116,.F.);
#103=ORIENTED_EDGE('',*,*,#122,.T.);
#104=ORIENTED_EDGE('',*,*,#133,.F.);
#105=ORIENTED_EDGE('',*,*,#117,.T.);
#106=ORIENTED_EDGE('',*,*,#137,.F.);
#107=ORIENTED_EDGE('',*,*,#112,.T.);
#108=ORIENTED_EDGE('',*,*,#131,.F.);
#109=ORIENTED_EDGE('',*,*,#127,.T.);
#110=ORIENTED_EDGE('',*,*,#135,.T.);
#111=EDGE_CURVE('',#139,#139,#159,.T.);
#112=EDGE_CURVE('',#140,#141,#160,.T.);
#113=EDGE_CURVE('',#140,#142,#15,.T.);
#114=EDGE_CURVE('',#143,#142,#16,.F.);
#115=EDGE_CURVE('',#141,#143,#17,.T.);
#116=EDGE_CURVE('',#144,#144,#161,.T.);
#117=EDGE_CURVE('',#145,#146,#162,.T.);
#118=EDGE_CURVE('',#147,#145,#18,.T.);
#119=EDGE_CURVE('',#147,#148,#19,.F.);
#120=EDGE_CURVE('',#148,#146,#20,.T.);
#121=EDGE_CURVE('',#149,#149,#163,.T.);
#122=EDGE_CURVE('',#150,#151,#164,.T.);
#123=EDGE_CURVE('',#150,#152,#21,.T.);
#124=EDGE_CURVE('',#153,#152,#22,.F.);
#125=EDGE_CURVE('',#151,#153,#23,.T.);
#126=EDGE_CURVE('',#154,#154,#165,.T.);
#127=EDGE_CURVE('',#155,#156,#166,.T.);
#128=EDGE_CURVE('',#157,#155,#24,.T.);
#129=EDGE_CURVE('',#157,#158,#25,.F.);
#130=EDGE_CURVE('',#158,#156,#26,.T.);
#131=EDGE_CURVE('',#155,#141,#27,.T.);
#132=EDGE_CURVE('',#143,#147,#28,.F.);
#133=EDGE_CURVE('',#145,#151,#29,.T.);
#134=EDGE_CURVE('',#153,#157,#30,.F.);
#135=EDGE_CURVE('',#156,#150,#31,.T.);
#136=EDGE_CURVE('',#152,#158,#32,.F.);
#137=EDGE_CURVE('',#140,#146,#33,.T.);
#138=EDGE_CURVE('',#142,#148,#34,.F.);
#139=VERTEX_POINT('',#322);
#140=VERTEX_POINT('',#324);
#141=VERTEX_POINT('',#325);
#142=VERTEX_POINT('',#327);
#143=VERTEX_POINT('',#329);
#144=VERTEX_POINT('',#333);
#145=VERTEX_POINT('',#335);
#146=VERTEX_POINT('',#336);
#147=VERTEX_POINT('',#338);
#148=VERTEX_POINT('',#340);
#149=VERTEX_POINT('',#344);
#150=VERTEX_POINT('',#346);
#151=VERTEX_POINT('',#347);
#152=VERTEX_POINT('',#349);
#153=VERTEX_POINT('',#351);
#154=VERTEX_POINT('',#355);
#155=VERTEX_POINT('',#357);
#156=VERTEX_POINT('',#358);
#157=VERTEX_POINT('',#360);
#158=VERTEX_POINT('',#362);
#159=CIRCLE('',#238,0.0005);
#160=CIRCLE('',#239,0.0021);
#161=CIRCLE('',#241,0.0005);
#162=CIRCLE('',#242,0.0021);
#163=CIRCLE('',#244,0.0005);
#164=CIRCLE('',#245,0.0021);
#165=CIRCLE('',#247,0.0005);
#166=CIRCLE('',#248,0.0021);
#167=EDGE_LOOP('',(#55));
#168=EDGE_LOOP('',(#56,#57,#58,#59));
#169=EDGE_LOOP('',(#60));
#170=EDGE_LOOP('',(#61,#62,#63,#64));
#171=EDGE_LOOP('',(#65));
#172=EDGE_LOOP('',(#66,#67,#68,#69));
#173=EDGE_LOOP('',(#70));
#174=EDGE_LOOP('',(#71,#72,#73,#74));
#175=EDGE_LOOP('',(#75,#76,#77,#78,#79,#80,#81,#82));
#176=EDGE_LOOP('',(#83,#84,#85,#86));
#177=EDGE_LOOP('',(#87,#88,#89,#90));
#178=EDGE_LOOP('',(#91,#92,#93,#94));
#179=EDGE_LOOP('',(#95,#96,#97,#98));
#180=EDGE_LOOP('',(#99));
#181=EDGE_LOOP('',(#100));
#182=EDGE_LOOP('',(#101));
#183=EDGE_LOOP('',(#102));
#184=EDGE_LOOP('',(#103,#104,#105,#106,#107,#108,#109,#110));
#185=FACE_BOUND('',#167,.T.);
#186=FACE_BOUND('',#168,.T.);
#187=FACE_BOUND('',#169,.T.);
#188=FACE_BOUND('',#170,.T.);
#189=FACE_BOUND('',#171,.T.);
#190=FACE_BOUND('',#172,.T.);
#191=FACE_BOUND('',#173,.T.);
#192=FACE_BOUND('',#174,.T.);
#193=FACE_BOUND('',#175,.T.);
#194=FACE_BOUND('',#176,.T.);
#195=FACE_BOUND('',#177,.T.);
#196=FACE_BOUND('',#178,.T.);
#197=FACE_BOUND('',#179,.T.);
#198=FACE_BOUND('',#180,.T.);
#199=FACE_BOUND('',#181,.T.);
#200=FACE_BOUND('',#182,.T.);
#201=FACE_BOUND('',#183,.T.);
#202=FACE_BOUND('',#184,.T.);
#203=PLANE('',#237);
#204=PLANE('',#240);
#205=PLANE('',#243);
#206=PLANE('',#246);
#207=PLANE('',#249);
#208=PLANE('',#250);
#209=PLANE('',#251);
#210=PLANE('',#252);
#211=PLANE('',#253);
#212=ADVANCED_FACE('',(#185,#186),#203,.F.);
#213=ADVANCED_FACE('',(#187,#188),#204,.F.);
#214=ADVANCED_FACE('',(#189,#190),#205,.F.);
#215=ADVANCED_FACE('',(#191,#192),#206,.F.);
#216=ADVANCED_FACE('',(#193),#207,.T.);
#217=ADVANCED_FACE('',(#194),#208,.F.);
#218=ADVANCED_FACE('',(#195),#209,.T.);
#219=ADVANCED_FACE('',(#196),#210,.T.);
#220=ADVANCED_FACE('',(#197),#211,.T.);
#221=ADVANCED_FACE('',(#198,#199),#12,.F.);
#222=ADVANCED_FACE('',(#200,#201),#13,.F.);
#223=ADVANCED_FACE('',(#202),#14,.T.);
#224=CLOSED_SHELL('',(#212,#213,#214,#215,#216,#217,#218,#219,#220,#221,
#222,#223));
#225=STYLED_ITEM('',(#226),#233);
#226=PRESENTATION_STYLE_ASSIGNMENT((#227));
#227=SURFACE_STYLE_USAGE(.BOTH.,#228);
#228=SURFACE_SIDE_STYLE('',(#229));
#229=SURFACE_STYLE_FILL_AREA(#230);
#230=FILL_AREA_STYLE('',(#231));
#231=FILL_AREA_STYLE_COLOUR('',#232);
#232=COLOUR_RGB('',0.647058823529412,0.647058823529412,0.647058823529412);
#233=MANIFOLD_SOLID_BREP('BigStand2',#224);
#234=SHAPE_DEFINITION_REPRESENTATION(#386,#235);
#235=SHAPE_REPRESENTATION('BigStand2',(#236),#381);
#236=AXIS2_PLACEMENT_3D('',#319,#257,#258);
#237=AXIS2_PLACEMENT_3D('',#320,#259,#260);
#238=AXIS2_PLACEMENT_3D('',#321,#261,#262);
#239=AXIS2_PLACEMENT_3D('',#323,#263,#264);
#240=AXIS2_PLACEMENT_3D('',#331,#268,#269);
#241=AXIS2_PLACEMENT_3D('',#332,#270,#271);
#242=AXIS2_PLACEMENT_3D('',#334,#272,#273);
#243=AXIS2_PLACEMENT_3D('',#342,#277,#278);
#244=AXIS2_PLACEMENT_3D('',#343,#279,#280);
#245=AXIS2_PLACEMENT_3D('',#345,#281,#282);
#246=AXIS2_PLACEMENT_3D('',#353,#286,#287);
#247=AXIS2_PLACEMENT_3D('',#354,#288,#289);
#248=AXIS2_PLACEMENT_3D('',#356,#290,#291);
#249=AXIS2_PLACEMENT_3D('',#364,#295,#296);
#250=AXIS2_PLACEMENT_3D('',#369,#301,#302);
#251=AXIS2_PLACEMENT_3D('',#372,#305,#306);
#252=AXIS2_PLACEMENT_3D('',#375,#309,#310);
#253=AXIS2_PLACEMENT_3D('',#376,#311,#312);
#254=AXIS2_PLACEMENT_3D('',#377,#313,#314);
#255=AXIS2_PLACEMENT_3D('',#378,#315,#316);
#256=AXIS2_PLACEMENT_3D('',#379,#317,#318);
#257=DIRECTION('',(0.,0.,1.));
#258=DIRECTION('',(1.,0.,0.));
#259=DIRECTION('',(1.,0.,0.));
#260=DIRECTION('',(0.,0.,-1.));
#261=DIRECTION('',(1.,0.,0.));
#262=DIRECTION('',(0.,0.,-1.));
#263=DIRECTION('',(1.,0.,0.));
#264=DIRECTION('',(0.,0.,-1.));
#265=DIRECTION('',(0.,1.,0.));
#266=DIRECTION('',(0.,0.90630778703665,-0.422618261740699));
#267=DIRECTION('',(0.,1.,0.));
#268=DIRECTION('',(-1.,0.,0.));
#269=DIRECTION('',(0.,0.,1.));
#270=DIRECTION('',(-1.,0.,0.));
#271=DIRECTION('',(0.,0.,1.));
#272=DIRECTION('',(-1.,0.,0.));
#273=DIRECTION('',(0.,0.,1.));
#274=DIRECTION('',(0.,-1.,0.));
#275=DIRECTION('',(0.,0.90630778703665,-0.422618261740699));
#276=DIRECTION('',(6.93889390390723E-16,-1.,0.));
#277=DIRECTION('',(1.,0.,0.));
#278=DIRECTION('',(0.,0.,-1.));
#279=DIRECTION('',(1.,0.,0.));
#280=DIRECTION('',(0.,0.,-1.));
#281=DIRECTION('',(1.,0.,0.));
#282=DIRECTION('',(0.,0.,-1.));
#283=DIRECTION('',(0.,1.,0.));
#284=DIRECTION('',(0.,0.885084755147757,-0.465429883231658));
#285=DIRECTION('',(0.,1.,0.));
#286=DIRECTION('',(-1.,0.,0.));
#287=DIRECTION('',(0.,0.,1.));
#288=DIRECTION('',(-1.,0.,0.));
#289=DIRECTION('',(0.,0.,1.));
#290=DIRECTION('',(-1.,0.,0.));
#291=DIRECTION('',(0.,0.,1.));
#292=DIRECTION('',(0.,-1.,0.));
#293=DIRECTION('',(0.,0.885084755147757,-0.465429883231658));
#294=DIRECTION('',(0.,-1.,0.));
#295=DIRECTION('',(0.,0.,-1.));
#296=DIRECTION('',(-1.,0.,0.));
#297=DIRECTION('',(-1.,0.,0.));
#298=DIRECTION('',(1.,5.94762334620619E-16,0.));
#299=DIRECTION('',(-1.,0.,0.));
#300=DIRECTION('',(-1.,0.,0.));
#301=DIRECTION('',(0.,0.,-1.));
#302=DIRECTION('',(-1.,0.,0.));
#303=DIRECTION('',(-1.,0.,0.));
#304=DIRECTION('',(-1.,0.,0.));
#305=DIRECTION('',(0.,0.,-1.));
#306=DIRECTION('',(-1.,0.,0.));
#307=DIRECTION('',(-1.,0.,0.));
#308=DIRECTION('',(1.,5.94762334620619E-16,0.));
#309=DIRECTION('',(2.51357424006207E-16,-0.422618261740699,-0.90630778703665));
#310=DIRECTION('',(-5.39037735302765E-16,0.90630778703665,-0.422618261740699));
#311=DIRECTION('',(0.,0.465429883231658,0.885084755147757));
#312=DIRECTION('',(0.,-0.885084755147757,0.465429883231658));
#313=DIRECTION('',(-1.,0.,0.));
#314=DIRECTION('',(0.,0.,1.));
#315=DIRECTION('',(-1.,0.,0.));
#316=DIRECTION('',(0.,0.,1.));
#317=DIRECTION('',(-1.,0.,0.));
#318=DIRECTION('',(0.,0.,1.));
#319=CARTESIAN_POINT('',(0.,0.,0.));
#320=CARTESIAN_POINT('',(0.1141625,-0.0574625,-0.0011));
#321=CARTESIAN_POINT('',(0.1141625,-0.0734057786718959,0.001));
#322=CARTESIAN_POINT('',(0.1141625,-0.0734057786718959,0.0005));
#323=CARTESIAN_POINT('',(0.1141625,-0.0734057786718959,0.001));
#324=CARTESIAN_POINT('',(0.1141625,-0.0753031452679969,0.0019));
#325=CARTESIAN_POINT('',(0.1141625,-0.0734057786718959,-0.0011));
#326=CARTESIAN_POINT('',(0.1141625,-0.0699625,0.0019));
#327=CARTESIAN_POINT('',(0.1141625,-0.0613960207615287,0.0019));
#328=CARTESIAN_POINT('',(0.1141625,-0.0570159845121082,-0.000142444446101278));
#329=CARTESIAN_POINT('',(0.1141625,-0.0549625,-0.0011));
#330=CARTESIAN_POINT('',(0.1141625,-0.0574625,-0.0011));
#331=CARTESIAN_POINT('',(0.0791625,-0.0574625,-0.0011));
#332=CARTESIAN_POINT('',(0.0791625,-0.0734057786718959,0.001));
#333=CARTESIAN_POINT('',(0.0791625,-0.0734057786718959,0.0015));
#334=CARTESIAN_POINT('',(0.0791625,-0.0734057786718959,0.001));
#335=CARTESIAN_POINT('',(0.0791625,-0.0734057786718959,-0.0011));
#336=CARTESIAN_POINT('',(0.0791625,-0.0753031452679969,0.0019));
#337=CARTESIAN_POINT('',(0.0791625,-0.0574625,-0.0011));
#338=CARTESIAN_POINT('',(0.0791625,-0.0549625,-0.0011));
#339=CARTESIAN_POINT('',(0.0791625,-0.0549625,-0.00109999999999999));
#340=CARTESIAN_POINT('',(0.0791625,-0.0613960207615288,0.0019));
#341=CARTESIAN_POINT('',(0.0791625,-0.0699625,0.0019));
#342=CARTESIAN_POINT('',(0.0716625,-0.0624625,-0.0011));
#343=CARTESIAN_POINT('',(0.0716625,-0.0734057786718959,0.001));
#344=CARTESIAN_POINT('',(0.0716625,-0.0734057786718959,0.0005));
#345=CARTESIAN_POINT('',(0.0716625,-0.0734057786718959,0.001));
#346=CARTESIAN_POINT('',(0.0716625,-0.0743002058628958,0.0029));
#347=CARTESIAN_POINT('',(0.0716625,-0.0734057786718959,-0.0011));
#348=CARTESIAN_POINT('',(0.0716625,-0.0624625,0.0029));
#349=CARTESIAN_POINT('',(0.0716625,-0.0449625,0.0029));
#350=CARTESIAN_POINT('',(0.0716625,-0.0449625,0.0029));
#351=CARTESIAN_POINT('',(0.0716625,-0.0373558998478803,-0.0011));
#352=CARTESIAN_POINT('',(0.0716625,-0.0624625,-0.0011));
#353=CARTESIAN_POINT('',(0.1216625,-0.0624625,-0.0011));
#354=CARTESIAN_POINT('',(0.1216625,-0.0734057786718959,0.001));
#355=CARTESIAN_POINT('',(0.1216625,-0.0734057786718959,0.0015));
#356=CARTESIAN_POINT('',(0.1216625,-0.0734057786718959,0.001));
#357=CARTESIAN_POINT('',(0.1216625,-0.0734057786718959,-0.0011));
#358=CARTESIAN_POINT('',(0.1216625,-0.0743002058628958,0.0029));
#359=CARTESIAN_POINT('',(0.1216625,-0.0624625,-0.0011));
#360=CARTESIAN_POINT('',(0.1216625,-0.0373558998478803,-0.0011));
#361=CARTESIAN_POINT('',(0.1216625,-0.0570237833394578,0.00924253574435433));
#362=CARTESIAN_POINT('',(0.1216625,-0.0449625,0.0029));
#363=CARTESIAN_POINT('',(0.1216625,-0.0624625,0.0029));
#364=CARTESIAN_POINT('',(0.0275,-0.0609625,-0.0011));
#365=CARTESIAN_POINT('',(0.436605965065445,-0.0734057786718959,-0.0011));
#366=CARTESIAN_POINT('',(0.0275,-0.0549625,-0.0011));
#367=CARTESIAN_POINT('',(0.436605965065445,-0.0734057786718959,-0.0011));
#368=CARTESIAN_POINT('',(0.0275,-0.0373558998478803,-0.0011));
#369=CARTESIAN_POINT('',(0.0275,-0.0609625,0.0029));
#370=CARTESIAN_POINT('',(0.436605965065445,-0.0743002058628958,0.0029));
#371=CARTESIAN_POINT('',(0.0275,-0.0449625,0.0029));
#372=CARTESIAN_POINT('',(0.0275,-0.0609625,0.0019));
#373=CARTESIAN_POINT('',(0.436605965065445,-0.0753031452679969,0.0019));
#374=CARTESIAN_POINT('',(0.0275,-0.0613960207615288,0.0019));
#375=CARTESIAN_POINT('',(0.0275,-0.0549625,-0.0011));
#376=CARTESIAN_POINT('',(0.0275,-0.0449625,0.0029));
#377=CARTESIAN_POINT('',(0.1371625,-0.0734057786718959,0.001));
#378=CARTESIAN_POINT('',(0.1371625,-0.0734057786718959,0.001));
#379=CARTESIAN_POINT('',(0.436605965065445,-0.0734057786718959,0.001));
#380=MECHANICAL_DESIGN_GEOMETRIC_PRESENTATION_REPRESENTATION('',(#225),
#381);
#381=(
GEOMETRIC_REPRESENTATION_CONTEXT(3)
GLOBAL_UNCERTAINTY_ASSIGNED_CONTEXT((#382))
GLOBAL_UNIT_ASSIGNED_CONTEXT((#385,#384,#383))
REPRESENTATION_CONTEXT('BigStand2','TOP_LEVEL_ASSEMBLY_PART')
);
#382=UNCERTAINTY_MEASURE_WITH_UNIT(LENGTH_MEASURE(1.E-8),#385,
'DISTANCE_ACCURACY_VALUE','Maximum Tolerance applied to model');
#383=(
NAMED_UNIT(*)
SI_UNIT($,.STERADIAN.)
SOLID_ANGLE_UNIT()
);
#384=(
NAMED_UNIT(*)
PLANE_ANGLE_UNIT()
SI_UNIT($,.RADIAN.)
);
#385=(
LENGTH_UNIT()
NAMED_UNIT(*)
SI_UNIT($,.METRE.)
);
#386=PRODUCT_DEFINITION_SHAPE('','',#387);
#387=PRODUCT_DEFINITION('','',#389,#388);
#388=PRODUCT_DEFINITION_CONTEXT('',#395,'design');
#389=PRODUCT_DEFINITION_FORMATION_WITH_SPECIFIED_SOURCE('','',#391,
 .NOT_KNOWN.);
#390=PRODUCT_RELATED_PRODUCT_CATEGORY('','',(#391));
#391=PRODUCT('BigStand2','BigStand2','BigStand2',(#393));
#392=PRODUCT_CATEGORY('','');
#393=PRODUCT_CONTEXT('',#395,'mechanical');
#394=APPLICATION_PROTOCOL_DEFINITION('international standard',
'ap242_managed_model_based_3d_engineering',2020,#395);
#395=APPLICATION_CONTEXT('managed model based 3d engineering');
ENDSEC;
END-ISO-10303-21;
